<svg xmlns="http://www.w3.org/2000/svg" width="200" height="300" viewBox="0 0 200 300"><rect width="100%" height="100%" fill="#EEE"/><path fill="#31343C" d="M57.07 137.06v19.91h-3.98l-8.04-13.6-.08.01v13.59h-4v-19.91h4l8.04 13.59.08-.01v-13.58zm2.79 12.66v-.28q0-3.31 1.84-5.42 1.85-2.12 5.11-2.12 3.29 0 5.15 2.11 1.85 2.1 1.85 5.43v.28q0 3.34-1.85 5.44t-5.12 2.1q-3.28 0-5.13-2.1t-1.85-5.44m3.97-.28v.28q0 2.03.72 3.25.71 1.22 2.29 1.22 1.55 0 2.26-1.23.72-1.23.72-3.24v-.28q0-1.97-.72-3.22-.73-1.24-2.29-1.24-1.54 0-2.26 1.25t-.72 3.21m23.98-12.38v19.91h-3.99v-19.91zm3.66 5.12h3.7l.16 1.95q.72-1.06 1.79-1.65 1.07-.58 2.48-.58 1.42 0 2.43.63 1.02.63 1.53 1.9.69-1.19 1.78-1.86 1.1-.67 2.57-.67 2.19 0 3.45 1.51 1.27 1.52 1.27 4.6v8.96h-3.99V148q0-1.68-.55-2.34-.55-.65-1.63-.65-.84 0-1.47.37-.62.38-.99 1.05 0 .26.02.44.01.19.01.38v9.72h-3.98V148q0-1.64-.55-2.32-.54-.67-1.64-.67-.8 0-1.41.3-.61.31-1.01.87v10.79h-3.97zm36.9 14.79h-4q-.22-.51-.37-1.07-.16-.56-.23-1.14-.61 1.08-1.62 1.79-1 .71-2.4.71-2.32 0-3.58-1.2t-1.26-3.26q0-2.17 1.68-3.37 1.67-1.2 4.88-1.2h2.23v-1.17q0-1.07-.56-1.66-.56-.58-1.65-.58-.97 0-1.5.47-.52.47-.52 1.3l-3.86-.01-.01-.08q-.1-1.88 1.62-3.24 1.73-1.36 4.53-1.36 2.65 0 4.3 1.35 1.66 1.35 1.66 3.84v6.11q0 1.04.16 1.95.15.92.5 1.82m-7.65-2.67q1.06 0 1.88-.52t1.1-1.2v-2.09h-2.23q-1.27 0-1.92.64-.66.63-.66 1.53 0 .74.49 1.19.5.45 1.34.45m9.4-4.32v-.28q0-3.5 1.52-5.65t4.27-2.15q1.25 0 2.19.56t1.61 1.6l.32-1.88h3.44v14.72q0 2.89-1.89 4.47-1.89 1.57-5.27 1.57-1.12 0-2.38-.3-1.26-.31-2.32-.84l.73-2.98q.92.43 1.87.66.95.22 2.07.22 1.64 0 2.41-.68.78-.68.78-2.13v-1.34q-.66.83-1.55 1.27t-2.03.44q-2.73 0-4.25-2.01-1.52-2-1.52-5.27m3.99-.28v.28q0 1.95.65 3.06.66 1.11 2.14 1.11.91 0 1.55-.33.63-.34 1.02-.98v-6.42q-.39-.67-1.02-1.04-.64-.37-1.53-.37-1.46 0-2.14 1.3-.67 1.29-.67 3.39m18.97 7.56q-3.19 0-5.11-2.05-1.91-2.05-1.91-5.21v-.55q0-3.29 1.81-5.43 1.81-2.13 4.86-2.12 2.99 0 4.65 1.81 1.65 1.8 1.65 4.88v2.17h-8.83l-.03.08q.11 1.47.98 2.41t2.36.94q1.32 0 2.2-.26.87-.27 1.91-.84l1.08 2.46q-.9.74-2.36 1.22-1.46.49-3.26.49m-.35-12.28q-1.11 0-1.75.85t-.79 2.23l.04.06h4.89v-.35q0-1.27-.59-2.03-.6-.76-1.8-.76"/></svg>